<svg xmlns="http://www.w3.org/2000/svg" viewBox="30 -5 80 80">
  <!-- Head -->
  <circle cx="70" cy="42" r="26" fill="#d1d5db"/>
  <!-- White face patch -->
  <path d="M50 38 Q55 52 70 56 Q85 52 90 38 Q82 44 70 46 Q58 44 50 38Z" fill="#f5f5f4"/>
  <!-- Dark cap/crown -->
  <path d="M44 38 Q48 16 70 14 Q92 16 96 38 Q88 24 70 22 Q52 24 44 38Z" fill="#1a2332"/>
  <!-- Left eye -->
  <ellipse cx="58" cy="40" rx="4.5" ry="4" fill="white"/>
  <circle cx="59" cy="40" r="2.5" fill="#c0392b"/>
  <circle cx="59.5" cy="39.5" r="1.2" fill="#1a1a1a"/>
  <!-- Angry left eyebrow -->
  <line x1="52" y1="33" x2="63" y2="35" stroke="#1a2332" stroke-width="2.5" stroke-linecap="round"/>
  <!-- Right eye -->
  <ellipse cx="82" cy="40" rx="4.5" ry="4" fill="white"/>
  <circle cx="81" cy="40" r="2.5" fill="#c0392b"/>
  <circle cx="80.5" cy="39.5" r="1.2" fill="#1a1a1a"/>
  <!-- Angry right eyebrow -->
  <line x1="88" y1="33" x2="77" y2="35" stroke="#1a2332" stroke-width="2.5" stroke-linecap="round"/>
  <!-- Head plumes -->
  <path d="M66 15 Q63 4 58 -2" stroke="#1a2332" stroke-width="2" stroke-linecap="round" fill="none"/>
  <path d="M70 14 Q70 2 72 -4" stroke="#1a2332" stroke-width="2" stroke-linecap="round" fill="none"/>
  <path d="M74 15 Q77 4 82 -2" stroke="#1a2332" stroke-width="2" stroke-linecap="round" fill="none"/>
  <!-- Beak -->
  <path d="M64 48 L70 62 L76 48Z" fill="#2c3e50"/>
</svg>
